<?xml version="1.0" standalone="no"?>
<!DOCTYPE svg PUBLIC "-//W3C//DTD SVG 20010904//EN"
 "http://www.w3.org/TR/2001/REC-SVG-20010904/DTD/svg10.dtd">
<svg version="1.0" xmlns="http://www.w3.org/2000/svg"
 width="308.000000pt" height="31.000000pt" viewBox="0 0 308.000000 31.000000"
 preserveAspectRatio="xMidYMid meet">

<g transform="translate(0.000000,31.000000) scale(0.100000,-0.100000)"
fill="#000000" stroke="none">
<path d="M1320 165 c0 -111 3 -135 14 -135 10 0 16 14 18 42 3 39 5 43 28 40
14 -2 44 -22 67 -44 58 -57 78 -44 24 15 l-43 47 42 47 c33 38 39 49 25 51
-10 2 -32 -14 -54 -39 -24 -25 -49 -43 -65 -45 l-26 -3 0 80 c0 64 -3 79 -15
79 -13 0 -15 -22 -15 -135z"/>
<path d="M2928 283 c0 -10 -1 -25 -2 -33 -1 -12 -18 -16 -76 -18 -41 -2 -80
-8 -87 -14 -19 -15 -18 -162 1 -177 9 -8 46 -11 103 -9 l88 3 0 129 c-1 92 -4
131 -13 134 -7 2 -13 -5 -14 -15z m-8 -153 l0 -70 -70 0 -70 0 0 70 0 70 70 0
70 0 0 -70z"/>
<path d="M320 155 l0 -125 120 0 c137 0 147 6 136 84 -3 22 -7 65 -8 94 -2 33
-9 57 -18 62 -8 5 -63 10 -122 10 l-108 0 0 -125z m213 82 c3 -7 3 -25 0 -40
-5 -27 -6 -27 -89 -27 -46 0 -85 3 -85 8 -5 28 -6 58 -2 65 8 13 170 8 176 -6z
m12 -137 l0 -35 -95 0 -95 0 -3 38 -3 38 98 -3 98 -3 0 -35z"/>
<path d="M1557 267 c4 -7 29 -43 56 -79 40 -56 47 -73 47 -112 0 -34 4 -46 15
-46 11 0 15 12 15 46 0 39 7 56 48 113 66 91 66 91 45 91 -10 0 -35 -24 -57
-55 -22 -30 -44 -55 -50 -55 -6 1 -31 25 -55 55 -24 30 -50 55 -58 55 -9 0
-11 -5 -6 -13z"/>
<path d="M2500 155 c0 -104 2 -125 15 -125 12 0 15 13 15 55 l0 55 80 0 c64 0
80 3 80 15 0 12 -16 15 -80 15 l-80 0 0 40 0 39 97 3 c66 2 98 7 101 16 3 9
-24 12 -112 12 l-116 0 0 -125z"/>
<path d="M636 208 c-22 -31 -23 -178 -1 -178 8 0 15 8 16 18 0 9 1 46 2 82 l2
65 63 3 c46 2 62 7 62 17 0 12 -15 15 -64 15 -56 0 -67 -3 -80 -22z"/>
<path d="M830 215 c-18 -21 -18 -149 -1 -169 19 -23 191 -23 191 -1 0 12 -16
15 -84 15 -86 0 -98 6 -89 40 3 12 22 15 86 15 l82 0 3 43 c5 63 -7 72 -98 72
-58 0 -81 -4 -90 -15z m160 -45 l0 -30 -68 0 c-38 0 -71 2 -74 5 -3 3 -3 17 0
30 4 24 8 25 73 25 l69 0 0 -30z"/>
<path d="M1070 215 c0 -12 16 -15 85 -15 l85 0 0 -29 0 -30 -82 2 -83 2 -3
-43 c-5 -65 6 -72 109 -72 l89 0 0 88 c0 55 -4 92 -12 100 -8 8 -45 12 -100
12 -72 0 -88 -3 -88 -15z m170 -125 l0 -30 -70 0 -70 0 0 30 0 30 70 0 70 0 0
-30z"/>
<path d="M1826 214 c-11 -11 -16 -35 -16 -83 0 -91 11 -101 113 -101 91 0 97
6 97 100 0 94 -6 100 -100 100 -58 0 -83 -4 -94 -16z m162 -87 l3 -68 -73 3
-73 3 -3 54 c-5 80 -3 82 75 79 l68 -3 3 -68z"/>
<path d="M2060 143 c0 -56 4 -93 12 -101 16 -16 160 -16 176 0 8 8 12 45 12
100 0 72 -3 88 -15 88 -12 0 -15 -16 -15 -85 l0 -85 -70 0 -69 0 -3 82 c-2 54
-7 83 -15 86 -10 3 -13 -19 -13 -85z"/>
<path d="M2322 218 c-8 -8 -12 -45 -12 -100 0 -72 3 -88 15 -88 12 0 15 16 15
85 l0 85 60 0 c47 0 60 3 60 15 0 12 -14 15 -63 15 -36 0 -68 -5 -75 -12z"/>
</g>
</svg>
